<svg width="32" height="32" viewBox="0 0 32 32" xmlns="http://www.w3.org/2000/svg">
  <defs>
    <linearGradient id="favGradient" x1="0%" y1="0%" x2="100%" y2="100%">
      <stop offset="0%" style="stop-color:#2563eb;stop-opacity:1" />
      <stop offset="100%" style="stop-color:#3b82f6;stop-opacity:1" />
    </linearGradient>
  </defs>

  <!-- Background circle -->
  <circle cx="16" cy="16" r="16" fill="url(#favGradient)"/>

  <!-- AI Brain Icon -->
  <!-- Brain outline -->
  <path d="M16 7c-1.5 0-2.8 0.7-3.5 1.8C11.8 8.3 11 8 10 8c-2 0-3.5 1.5-3.5 3.5 0 0.5 0.1 1 0.3 1.4C6.3 13.3 6 14 6 14.8c0 1.2 0.6 2.3 1.5 3C7.2 18.5 7 19.2 7 20c0 2 1.5 3.5 3.5 3.5 0.8 0 1.5-0.2 2.1-0.6 0.7 1 1.9 1.6 3.4 1.6s2.7-0.6 3.4-1.6c0.6 0.4 1.3 0.6 2.1 0.6 2 0 3.5-1.5 3.5-3.5 0-0.8-0.2-1.5-0.5-2.2 0.9-0.7 1.5-1.8 1.5-3 0-0.8-0.3-1.5-0.8-2.1 0.2-0.4 0.3-0.9 0.3-1.4C25.5 9.5 24 8 22 8c-1 0-1.8 0.3-2.5 0.8C18.8 7.7 17.5 7 16 7z"
        fill="none"
        stroke="white"
        stroke-width="1.5"
        stroke-linecap="round"
        stroke-linejoin="round"/>

  <!-- Neural network nodes -->
  <circle cx="12" cy="13" r="1.2" fill="white"/>
  <circle cx="16" cy="12" r="1.2" fill="white"/>
  <circle cx="20" cy="13" r="1.2" fill="white"/>
  <circle cx="13" cy="17" r="1.2" fill="white"/>
  <circle cx="19" cy="17" r="1.2" fill="white"/>
  <circle cx="16" cy="19" r="1.2" fill="white"/>

  <!-- Neural network connections -->
  <line x1="12" y1="13" x2="16" y2="12" stroke="white" stroke-width="0.8" opacity="0.6"/>
  <line x1="16" y1="12" x2="20" y2="13" stroke="white" stroke-width="0.8" opacity="0.6"/>
  <line x1="12" y1="13" x2="13" y2="17" stroke="white" stroke-width="0.8" opacity="0.6"/>
  <line x1="20" y1="13" x2="19" y2="17" stroke="white" stroke-width="0.8" opacity="0.6"/>
  <line x1="13" y1="17" x2="16" y2="19" stroke="white" stroke-width="0.8" opacity="0.6"/>
  <line x1="19" y1="17" x2="16" y2="19" stroke="white" stroke-width="0.8" opacity="0.6"/>
  <line x1="16" y1="12" x2="16" y2="19" stroke="white" stroke-width="0.8" opacity="0.6"/>
</svg>